<svg width="88" height="40" viewBox="0 0 88 40" fill="none" xmlns="http://www.w3.org/2000/svg">
<path fill-rule="evenodd" clip-rule="evenodd" d="M56.4203 4.13168C57.9275 4.19164 59.6802 4.14891 61.1895 4.14891C61.2027 4.05933 59.7177 3.20451 58.2217 2.06614C59.2427 1.39122 61.2073 0.099897 61.1895 0.0214804C58.9808 0.0214804 56.4642 0.10888 54.2603 0.00521439C53.0704 -0.0508668 52.4682 0.390985 51.8926 1.39341C45.5044 12.5215 39.0627 23.619 32.649 34.7324C32.2629 35.4014 30.9102 35.7083 30.9102 35.7083C19.8617 35.7122 19.8885 35.771 14.6107 35.7083C14.0965 35.7022 13.4383 35.3546 13.173 34.9055C10.4335 30.2713 7.78166 25.5855 5.067 20.9369C4.66311 20.2449 4.70038 19.7254 5.09257 19.0505C7.77728 14.4307 10.4369 9.79612 13.0663 5.14526C13.4787 4.41548 13.9681 4.1074 14.8051 4.1341C16.3644 4.18387 18.0194 4.14891 19.5806 4.14891C19.6001 4.06831 19.5611 4.22976 19.5806 4.14891C18.7081 3.56625 17.8011 2.74106 16.7624 2.0472C17.8019 1.36719 18.7307 0.577923 19.5806 0.0217231C16.977 0.0217231 14.6504 0.0217231 12.2882 0.0190526C11.5241 0.0183243 11.1326 0.314025 10.7711 0.942815C7.32272 6.94399 3.86021 12.9374 0.36042 18.9092C-0.106803 19.7067 -0.129944 20.2971 0.350676 21.1121C3.84535 27.0402 7.29934 32.9916 10.7224 38.961C11.1696 39.7411 11.6819 39.9885 12.555 39.9843C19.2522 39.9515 25.95 39.9275 32.6468 39.9999C33.9615 40.0142 34.6543 39.602 35.304 38.4682C41.6634 27.3707 48.0949 16.3139 54.4759 5.22854C54.9446 4.41451 55.4969 4.09477 56.4203 4.13168ZM15.4202 0.574281L15.8928 1.23536L15.0256 1.19457L15.4202 0.574281ZM57.2403 0.603657L57.7131 1.26474L56.8457 1.22395L57.2403 0.603657Z" fill="#DCC290"/>
<path fill-rule="evenodd" clip-rule="evenodd" d="M87.2381 19.2265C83.6633 13.1097 80.135 6.96532 76.5376 0.861693C76.2971 0.453344 75.6119 0.101562 75.1186 0.0809262C73.0517 -0.00574477 68.9129 8.18443e-05 68.9129 8.18443e-05L64.3764 2.18531L68.7746 4.18505C68.7746 4.18505 71.2895 4.19598 72.5457 4.14305C73.3761 4.10785 73.8687 4.39651 74.2882 5.13528C76.9066 9.74656 79.556 14.3411 82.2441 18.9123C82.7145 19.7123 82.7318 20.3068 82.2517 21.1192C79.5526 25.6841 76.8976 30.2754 74.2779 34.8865C73.8529 35.6347 73.2139 35.7214 72.3961 35.7173C67.0781 35.6908 61.8193 35.6855 56.5013 35.7173C55.6217 35.7224 55.1747 35.583 54.7403 34.8093C53.0756 31.8443 49.6433 25.9715 49.6433 25.9715C49.6433 25.9715 49.1907 25.2587 48.8545 24.7329C48.0738 26.0681 46.7676 28.3731 46.7676 28.3731L46.9517 29.5864C46.9517 29.5864 50.6067 35.9846 52.5146 39.1355C52.7647 39.549 53.448 39.936 53.9338 39.9399C60.9972 39.9911 68.061 39.9911 75.1244 39.9394C75.6077 39.936 76.2935 39.5483 76.5376 39.1351C80.1233 33.0712 83.6441 26.9696 87.2001 20.8883C87.5409 20.3056 87.6006 19.8468 87.2381 19.2265Z" fill="#DCC290"/>
<path fill-rule="evenodd" clip-rule="evenodd" d="M31.2519 4.1959C31.7593 4.21411 32.4041 4.59332 32.6828 5.00823C33.5378 6.28207 34.2394 7.65764 35.0123 8.98659C36.1875 11.007 37.3728 13.2641 38.7111 15.5496C39.469 14.2597 40.1357 13.0473 40.6134 11.9924C40.8202 11.5357 40.8351 10.7941 40.5985 10.3692C38.8283 7.18787 36.955 4.06334 35.1609 0.894634C34.787 0.234284 33.608 0.0303524 33.608 0.0303524L27.6483 0.000976562L22.8877 2.1527L27.1195 4.18425C27.1195 4.184 29.8281 4.14492 31.2519 4.1959Z" fill="#DCC290"/>
</svg>
